<svg width="16" height="13" viewBox="0 0 16 13" fill="none" xmlns="http://www.w3.org/2000/svg">
<path d="M15.4286 5.71753H1.85429L6.14 0.957535C6.24154 0.84387 6.29377 0.694525 6.2852 0.542352C6.27662 0.39018 6.20795 0.247646 6.09429 0.146106C5.98062 0.0445659 5.83128 -0.00766241 5.6791 0.00091068C5.52693 0.00948377 5.3844 0.078156 5.28286 0.19182L0.14 5.90611L0.122857 5.92896L0.0971429 5.96039L0.0800001 5.98611L0.0571428 6.02325L0.04 6.05753V6.08611V6.12896V6.16325V6.19182C0.04 6.20611 0.04 6.22039 0.04 6.23468C0.04 6.24896 0 6.26039 0 6.28896C0 6.31753 0 6.28896 0 6.28896C0 6.28896 0 6.31468 0 6.32896C0 6.34325 0 6.35753 0 6.37182V6.40039V6.43468V6.47753V6.50611L0.0171428 6.54039L0.04 6.57753L0.0571428 6.60325L0.0828571 6.63468L0.1 6.65753L5.24286 12.3718C5.3444 12.4855 5.48693 12.5542 5.6391 12.5627C5.79128 12.5713 5.94062 12.5191 6.05429 12.4175C6.16795 12.316 6.23662 12.1735 6.2452 12.0213C6.25377 11.8691 6.20154 11.7198 6.1 11.6061L1.85429 6.86039H15.4286C15.5801 6.86039 15.7255 6.80019 15.8326 6.69302C15.9398 6.58586 16 6.44052 16 6.28896C16 6.13741 15.9398 5.99207 15.8326 5.8849C15.7255 5.77774 15.5801 5.71753 15.4286 5.71753Z" fill="#1A73E8"/>
</svg>
