<svg width="23" height="26" viewBox="0 0 23 26" fill="none" xmlns="http://www.w3.org/2000/svg">
<path fill-rule="evenodd" clip-rule="evenodd" d="M18.8215 9.72973V13.6543C18.8215 16.3506 19.8481 18.7422 21.8716 20.763C21.9871 20.8782 22.0288 21.0484 21.9797 21.2037C21.9307 21.3595 21.7995 21.4751 21.6392 21.5026L17.5165 22.2178C16.7528 22.3504 16.0491 22.4591 15.3788 22.5486C14.6212 24.0418 13.132 25 11.5051 25C9.87862 25 8.38988 24.0422 7.63182 22.5499C6.95891 22.46 6.25168 22.3509 5.48363 22.2178L1.36058 21.5026C1.20028 21.4747 1.06865 21.3595 1.01999 21.2037C0.971338 21.0479 1.01304 20.8782 1.12816 20.763C3.06088 18.8334 4.04093 16.4418 4.04093 13.6543V9.72711C4.05831 6.96978 5.98538 4.84735 7.88726 3.96678C8.33123 3.76082 8.78867 3.59632 9.25393 3.47021V3.18178C9.25393 1.97875 10.2283 1 11.426 1C12.6237 1 13.5981 1.97875 13.5981 3.18178V3.43225C14.1146 3.56184 14.6229 3.73639 15.116 3.96286C16.8371 4.7531 18.8402 6.73764 18.8215 9.72973ZM11.426 1.87271C10.7075 1.87271 10.1228 2.46005 10.1228 3.18178V3.2817C10.9851 3.14163 11.8635 3.1364 12.7293 3.2612V3.18178C12.7293 2.46005 12.1445 1.87271 11.426 1.87271ZM11.5055 24.1269C10.4056 24.1269 9.37774 23.5779 8.71786 22.6803C9.68878 22.7807 10.595 22.8313 11.5007 22.8313C12.41 22.8313 13.3192 22.7807 14.294 22.679C13.6337 23.5775 12.6055 24.1269 11.5055 24.1269ZM15.0495 21.7116C15.7715 21.6191 16.5356 21.5017 17.3693 21.3573L20.6952 20.7809C18.8976 18.7352 17.9527 16.2873 17.9527 13.6548V9.72755C17.9679 7.31407 16.3575 5.49272 14.755 4.75659C14.2176 4.51005 13.6598 4.33027 13.0933 4.21158C13.0907 4.21117 13.088 4.21153 13.0853 4.21189C13.0823 4.2123 13.0794 4.21271 13.0764 4.21201C11.9934 3.98904 10.8543 3.99995 9.78349 4.24169C9.78132 4.24212 9.77904 4.24223 9.77676 4.24234C9.77447 4.24245 9.77219 4.24256 9.77002 4.243C9.25176 4.36212 8.74219 4.53186 8.25086 4.7592C6.59878 5.52457 4.92453 7.35814 4.90976 9.72973V13.6543C4.90976 16.3999 4.03354 18.7928 2.30326 20.78L5.6309 21.3569C6.46802 21.5017 7.2352 21.62 7.95981 21.7121H7.96371C8.2791 21.7522 8.5858 21.7875 8.88642 21.8177L8.91596 21.8203C9.18486 21.8473 9.44812 21.8691 9.70833 21.8879C9.76307 21.8918 9.81737 21.8953 9.87167 21.8988C10.1006 21.9141 10.3269 21.9254 10.5515 21.9346C10.5756 21.9355 10.5999 21.9366 10.6241 21.9377C10.6483 21.9387 10.6725 21.9398 10.6966 21.9407C11.2366 21.9586 11.7696 21.9586 12.3101 21.9403C12.338 21.9395 12.3662 21.9382 12.3943 21.937C12.4129 21.9361 12.4314 21.9353 12.4499 21.9346C12.6784 21.9259 12.9082 21.9137 13.1407 21.8984C13.1906 21.8953 13.241 21.8918 13.2914 21.8883C13.5599 21.8691 13.831 21.8465 14.1085 21.8185C14.1098 21.8185 14.111 21.8184 14.1122 21.8183C14.1134 21.8182 14.1146 21.8181 14.1159 21.8181C14.4187 21.7875 14.728 21.7522 15.0465 21.7116H15.0495Z" fill="#222222"/>
<path d="M18.8215 9.72973L18.7215 9.72911V9.72973H18.8215ZM21.8716 20.763L21.8009 20.8337L21.801 20.8338L21.8716 20.763ZM21.9797 21.2037L21.8844 21.1736L21.8844 21.1736L21.9797 21.2037ZM21.6392 21.5026L21.6223 21.404L21.6221 21.4041L21.6392 21.5026ZM17.5165 22.2178L17.4995 22.1193L17.4994 22.1193L17.5165 22.2178ZM15.3788 22.5486L15.3656 22.4494L15.3134 22.4564L15.2896 22.5033L15.3788 22.5486ZM7.63182 22.5499L7.72098 22.5046L7.69717 22.4577L7.64506 22.4507L7.63182 22.5499ZM5.48363 22.2178L5.46654 22.3163L5.46655 22.3163L5.48363 22.2178ZM1.36058 21.5026L1.34341 21.6011L1.34348 21.6011L1.36058 21.5026ZM1.12816 20.763L1.05751 20.6922L1.05743 20.6923L1.12816 20.763ZM4.04093 9.72711L3.94093 9.72648V9.72711H4.04093ZM7.88726 3.96678L7.92927 4.05753L7.92934 4.0575L7.88726 3.96678ZM9.25393 3.47021L9.28009 3.56673L9.35393 3.54671V3.47021H9.25393ZM13.5981 3.43225H13.4981V3.51026L13.5738 3.52924L13.5981 3.43225ZM15.116 3.96286L15.0742 4.05373L15.0742 4.05373L15.116 3.96286ZM10.1228 3.2817H10.0228V3.39926L10.1388 3.38041L10.1228 3.2817ZM12.7293 3.2612L12.715 3.36017L12.8293 3.37664V3.2612H12.7293ZM8.71786 22.6803L8.72814 22.5809L8.50355 22.5576L8.63729 22.7396L8.71786 22.6803ZM14.294 22.679L14.3746 22.7382L14.5085 22.5561L14.2837 22.5796L14.294 22.679ZM17.3693 21.3573L17.3863 21.4558H17.3864L17.3693 21.3573ZM15.0495 21.7116V21.8124L15.0622 21.8108L15.0495 21.7116ZM20.6952 20.7809L20.7123 20.8794L20.8881 20.8489L20.7703 20.7149L20.6952 20.7809ZM17.9527 9.72755L17.8527 9.72692V9.72755H17.9527ZM14.755 4.75659L14.7967 4.66571L14.7967 4.6657L14.755 4.75659ZM13.0933 4.21158L13.1138 4.11356L13.1086 4.11275L13.0933 4.21158ZM13.0853 4.21189L13.0718 4.11281L13.0718 4.11281L13.0853 4.21189ZM13.0764 4.21201L13.099 4.11457L13.0965 4.11407L13.0764 4.21201ZM9.78349 4.24169L9.80319 4.33975L9.80551 4.33923L9.78349 4.24169ZM9.77676 4.24234L9.77198 4.14245L9.77197 4.14246L9.77676 4.24234ZM9.77002 4.243L9.75031 4.14492L9.74762 4.14554L9.77002 4.243ZM8.25086 4.7592L8.20887 4.66845L8.20883 4.66847L8.25086 4.7592ZM4.90976 9.72973L4.80976 9.72911V9.72973H4.90976ZM2.30326 20.78L2.22784 20.7143L2.11127 20.8482L2.28618 20.8785L2.30326 20.78ZM5.6309 21.3569L5.61381 21.4554L5.61384 21.4554L5.6309 21.3569ZM7.95981 21.7121L7.9471 21.8121H7.95981V21.7121ZM7.96371 21.7121L7.97644 21.6121H7.96371V21.7121ZM8.88642 21.8177L8.87645 21.9172L8.87759 21.9173L8.88642 21.8177ZM8.91596 21.8203L8.92597 21.7208L8.92479 21.7207L8.91596 21.8203ZM9.70833 21.8879L9.70114 21.9877L9.70118 21.9877L9.70833 21.8879ZM9.87167 21.8988L9.87833 21.799L9.87809 21.799L9.87167 21.8988ZM10.5515 21.9346L10.5475 22.0345L10.5479 22.0345L10.5515 21.9346ZM10.6966 21.9407L10.693 22.0406L10.6933 22.0407L10.6966 21.9407ZM12.3101 21.9403L12.3072 21.8403L12.3067 21.8403L12.3101 21.9403ZM12.3943 21.937L12.3987 22.0369H12.3988L12.3943 21.937ZM12.4499 21.9346L12.4537 22.0345L12.4538 22.0345L12.4499 21.9346ZM13.1407 21.8984L13.1346 21.7986L13.1341 21.7986L13.1407 21.8984ZM13.2914 21.8883L13.2983 21.9881L13.2985 21.9881L13.2914 21.8883ZM14.1085 21.8185V21.718L14.0985 21.719L14.1085 21.8185ZM14.1159 21.8181V21.9186L14.126 21.9176L14.1159 21.8181ZM15.0465 21.7116V21.6108L15.0338 21.6124L15.0465 21.7116ZM18.9215 13.6543V9.72973H18.7215V13.6543H18.9215ZM21.9422 20.6922C19.9362 18.6889 18.9215 16.3223 18.9215 13.6543H18.7215C18.7215 16.3789 19.7599 18.7955 21.8009 20.8337L21.9422 20.6922ZM22.0751 21.2338C22.1355 21.0428 22.0842 20.8337 21.9422 20.6922L21.801 20.8338C21.8901 20.9226 21.9222 21.0539 21.8844 21.1736L22.0751 21.2338ZM21.6561 21.6012C21.8538 21.5673 22.0149 21.4248 22.0751 21.2338L21.8844 21.1736C21.8464 21.2942 21.7451 21.383 21.6223 21.404L21.6561 21.6012ZM17.5336 22.3163L21.6563 21.6011L21.6221 21.4041L17.4995 22.1193L17.5336 22.3163ZM15.392 22.6477C16.0638 22.558 16.7688 22.4492 17.5337 22.3163L17.4994 22.1193C16.7369 22.2517 16.0344 22.3602 15.3656 22.4494L15.392 22.6477ZM11.5051 25.1C13.1721 25.1 14.6944 24.1184 15.468 22.5938L15.2896 22.5033C14.5479 23.9651 13.0919 24.9 11.5051 24.9V25.1ZM7.54266 22.5951C8.31664 24.1188 9.83854 25.1 11.5051 25.1V24.9C9.91871 24.9 8.46312 23.9656 7.72098 22.5046L7.54266 22.5951ZM5.46655 22.3163C6.23573 22.4496 6.94425 22.5589 7.61858 22.649L7.64506 22.4507C6.97357 22.361 6.26763 22.2522 5.5007 22.1193L5.46655 22.3163ZM1.34348 21.6011L5.46654 22.3163L5.50072 22.1193L1.37767 21.4041L1.34348 21.6011ZM0.92454 21.2335C0.984379 21.4251 1.14626 21.5668 1.34341 21.6011L1.37774 21.4041C1.25429 21.3826 1.15292 21.2939 1.11545 21.1739L0.92454 21.2335ZM1.05743 20.6923C0.91598 20.8338 0.86482 21.0423 0.92454 21.2335L1.11545 21.1739C1.07786 21.0535 1.1101 20.9225 1.1989 20.8337L1.05743 20.6923ZM3.94093 13.6543C3.94093 16.4158 2.97101 18.7818 1.05751 20.6922L1.19882 20.8338C3.15075 18.885 4.14093 16.4677 4.14093 13.6543H3.94093ZM3.94093 9.72711V13.6543H4.14093V9.72711H3.94093ZM7.84524 3.87604C5.91728 4.76868 3.95861 6.92134 3.94093 9.72648L4.14093 9.72774C4.158 7.01822 6.05348 4.92602 7.92927 4.05753L7.84524 3.87604ZM9.22777 3.37369C8.75729 3.50121 8.2945 3.66762 7.84518 3.87607L7.92934 4.0575C8.36796 3.85402 8.82006 3.69142 9.28009 3.56673L9.22777 3.37369ZM9.15393 3.18178V3.47021H9.35393V3.18178H9.15393ZM11.426 0.9C10.1727 0.9 9.15393 1.92394 9.15393 3.18178H9.35393C9.35393 2.03355 10.284 1.1 11.426 1.1V0.9ZM13.6981 3.18178C13.6981 1.92394 12.6794 0.9 11.426 0.9V1.1C12.5681 1.1 13.4981 2.03355 13.4981 3.18178H13.6981ZM13.6981 3.43225V3.18178H13.4981V3.43225H13.6981ZM15.1577 3.87198C14.6586 3.64276 14.1445 3.46624 13.6224 3.33525L13.5738 3.52924C14.0847 3.65745 14.5871 3.83001 15.0742 4.05373L15.1577 3.87198ZM18.9215 9.73036C18.9405 6.68879 16.9043 4.6739 15.1577 3.87198L15.0742 4.05373C16.7699 4.83229 18.7399 6.7865 18.7215 9.72911L18.9215 9.73036ZM10.2228 3.18178C10.2228 2.51485 10.7631 1.97271 11.426 1.97271V1.77271C10.6518 1.77271 10.0228 2.40524 10.0228 3.18178H10.2228ZM10.2228 3.2817V3.18178H10.0228V3.2817H10.2228ZM12.7435 3.16222C11.8679 3.036 10.9793 3.04127 10.1067 3.183L10.1388 3.38041C10.9909 3.242 11.8591 3.23679 12.715 3.36017L12.7435 3.16222ZM12.6293 3.18178V3.2612H12.8293V3.18178H12.6293ZM11.426 1.97271C12.0889 1.97271 12.6293 2.51485 12.6293 3.18178H12.8293C12.8293 2.40524 12.2002 1.77271 11.426 1.77271V1.97271ZM8.63729 22.7396C9.31481 23.6611 10.3718 24.2269 11.5055 24.2269V24.0269C10.4394 24.0269 9.44067 23.4947 8.79843 22.6211L8.63729 22.7396ZM11.5007 22.7313C10.5988 22.7313 9.69607 22.6809 8.72814 22.5809L8.70758 22.7798C9.6815 22.8805 10.5911 22.9313 11.5007 22.9313V22.7313ZM14.2837 22.5796C13.3119 22.6809 12.4061 22.7313 11.5007 22.7313V22.9313C12.4138 22.9313 13.3265 22.8805 14.3044 22.7785L14.2837 22.5796ZM11.5055 24.2269C12.6393 24.2269 13.6967 23.6607 14.3746 22.7382L14.2135 22.6198C13.5708 23.4943 12.5716 24.0269 11.5055 24.0269V24.2269ZM17.3522 21.2588C16.5197 21.403 15.757 21.5202 15.0368 21.6124L15.0622 21.8108C15.7859 21.7181 16.5516 21.6005 17.3863 21.4558L17.3522 21.2588ZM20.6781 20.6823L17.3522 21.2588L17.3864 21.4558L20.7123 20.8794L20.6781 20.6823ZM17.8527 13.6548C17.8527 16.3126 18.8071 18.7838 20.6201 20.8469L20.7703 20.7149C18.988 18.6867 18.0527 16.262 18.0527 13.6548H17.8527ZM17.8527 9.72755V13.6548H18.0527V9.72755H17.8527ZM14.7132 4.84746C16.2874 5.57056 17.8676 7.36022 17.8527 9.72692L18.0527 9.72818C18.0682 7.26791 16.4276 5.41488 14.7967 4.66571L14.7132 4.84746ZM13.0728 4.30945C13.6323 4.42669 14.183 4.6042 14.7133 4.84748L14.7967 4.6657C14.2522 4.41589 13.6872 4.23385 13.1138 4.1137L13.0728 4.30945ZM13.0988 4.31098C13.1008 4.31071 13.0985 4.31106 13.0957 4.31124C13.0923 4.31146 13.086 4.31164 13.078 4.31041L13.1086 4.11275C13.0892 4.10975 13.072 4.11279 13.0718 4.11281L13.0988 4.31098ZM13.0538 4.30943C13.0667 4.31242 13.0778 4.3126 13.0853 4.31227C13.0921 4.31197 13.0981 4.31107 13.0989 4.31098L13.0718 4.11281C13.0695 4.11312 13.0726 4.11263 13.0764 4.11246C13.0809 4.11226 13.089 4.1123 13.0989 4.1146L13.0538 4.30943ZM9.80551 4.33923C10.8624 4.10063 11.9871 4.08984 13.0562 4.30996L13.0965 4.11407C11.9996 3.88823 10.8462 3.89926 9.76147 4.14414L9.80551 4.33923ZM9.78153 4.34223C9.78236 4.34219 9.79233 4.34191 9.80319 4.33973L9.76379 4.14365C9.76762 4.14288 9.77053 4.14259 9.77172 4.14249C9.77274 4.14241 9.77344 4.14239 9.77198 4.14245L9.78153 4.34223ZM9.78972 4.34104C9.78589 4.34181 9.78299 4.34209 9.78179 4.34219C9.78078 4.34227 9.78008 4.3423 9.78154 4.34223L9.77197 4.14246C9.77113 4.1425 9.76117 4.14278 9.75032 4.14496L9.78972 4.34104ZM8.29286 4.84996C8.77747 4.62572 9.28043 4.45814 9.79242 4.34045L9.74762 4.14554C9.22309 4.2661 8.70691 4.438 8.20887 4.66845L8.29286 4.84996ZM5.00976 9.73036C5.02423 7.40702 6.66639 5.60346 8.2929 4.84994L8.20883 4.66847C6.53116 5.44569 4.82484 7.30926 4.80977 9.72911L5.00976 9.73036ZM5.00976 13.6543V9.72973H4.80976V13.6543H5.00976ZM2.37868 20.8457C4.1255 18.8395 5.00976 16.4229 5.00976 13.6543H4.80976C4.80976 16.3768 3.94159 18.7462 2.22784 20.7143L2.37868 20.8457ZM5.64798 21.2583L2.32034 20.6815L2.28618 20.8785L5.61381 21.4554L5.64798 21.2583ZM7.97241 21.6129C7.24965 21.521 6.48399 21.403 5.64795 21.2583L5.61384 21.4554C6.45204 21.6005 7.22075 21.719 7.9472 21.8113L7.97241 21.6129ZM7.96371 21.6121H7.95981V21.8121H7.96371V21.6121ZM8.89638 21.7182C8.59677 21.6881 8.29097 21.6529 7.97634 21.6129L7.95109 21.8113C8.26723 21.8515 8.57483 21.887 8.87645 21.9172L8.89638 21.7182ZM8.92479 21.7207L8.89525 21.718L8.87759 21.9173L8.90713 21.9199L8.92479 21.7207ZM9.71553 21.7882C9.45603 21.7695 9.19373 21.7477 8.92597 21.7208L8.90595 21.9198C9.17599 21.9469 9.44021 21.9688 9.70114 21.9877L9.71553 21.7882ZM9.87809 21.799C9.82373 21.7955 9.76979 21.7921 9.71549 21.7882L9.70118 21.9877C9.75635 21.9916 9.81102 21.9951 9.86526 21.9986L9.87809 21.799ZM10.5556 21.8347C10.3316 21.8255 10.1062 21.8142 9.87833 21.799L9.86502 21.9986C10.095 22.0139 10.3223 22.0253 10.5475 22.0345L10.5556 21.8347ZM10.6286 21.8378C10.6044 21.8367 10.5798 21.8356 10.5552 21.8347L10.5479 22.0345C10.5715 22.0354 10.5953 22.0365 10.6196 22.0376L10.6286 21.8378ZM10.7002 21.8408C10.6767 21.8399 10.6529 21.8389 10.6286 21.8378L10.6196 22.0376C10.6437 22.0386 10.6684 22.0398 10.693 22.0406L10.7002 21.8408ZM12.3067 21.8403C11.7685 21.8586 11.2377 21.8586 10.6999 21.8408L10.6933 22.0407C11.2355 22.0586 11.7708 22.0586 12.3134 22.0402L12.3067 21.8403ZM12.3898 21.8371C12.3615 21.8383 12.3342 21.8396 12.3072 21.8403L12.3129 22.0402C12.3418 22.0394 12.3708 22.0381 12.3987 22.0369L12.3898 21.8371ZM12.4462 21.8347C12.4273 21.8354 12.4083 21.8362 12.3898 21.8371L12.3988 22.0369C12.4174 22.036 12.4356 22.0352 12.4537 22.0345L12.4462 21.8347ZM13.1341 21.7986C12.9025 21.8138 12.6736 21.826 12.4461 21.8347L12.4538 22.0345C12.6833 22.0258 12.914 22.0135 13.1472 21.9982L13.1341 21.7986ZM13.2845 21.7886C13.234 21.7921 13.184 21.7955 13.1346 21.7986L13.1468 21.9982C13.1972 21.9951 13.248 21.9916 13.2983 21.9881L13.2845 21.7886ZM14.0985 21.719C13.822 21.7468 13.5519 21.7695 13.2843 21.7886L13.2985 21.9881C13.5678 21.9688 13.8399 21.9461 14.1186 21.918L14.0985 21.719ZM14.1032 21.7187C14.1015 21.7189 14.1046 21.7185 14.1085 21.7185V21.9185C14.115 21.9185 14.1206 21.918 14.1213 21.9179L14.1032 21.7187ZM14.1159 21.7181C14.1094 21.7181 14.1039 21.7187 14.1032 21.7187L14.1213 21.9179C14.123 21.9177 14.1198 21.9181 14.1159 21.9181V21.7181ZM15.0338 21.6124C14.7162 21.6529 14.4078 21.6881 14.1059 21.7186L14.126 21.9176C14.4297 21.887 14.7398 21.8515 15.0591 21.8108L15.0338 21.6124ZM15.0495 21.6116H15.0465V21.8116H15.0495V21.6116Z" fill="#222222"/>
</svg>
