<svg width="21" height="22" viewBox="0 0 21 22" fill="none" xmlns="http://www.w3.org/2000/svg">
<path d="M4.84616 0.346194C3.88768 0.346194 2.95072 0.630794 2.15378 1.16401C1.35683 1.69722 0.735687 2.45509 0.368894 3.34179C0.00209977 4.22849 -0.0938702 5.20419 0.0931196 6.1455C0.28011 7.08682 0.741661 7.95147 1.41941 8.63012C2.09715 9.30877 2.96066 9.77093 3.90072 9.95817C4.84078 10.1454 5.81518 10.0493 6.7007 9.68203C7.58622 9.31475 8.34308 8.69278 8.87558 7.89477C9.40809 7.09676 9.69231 6.15856 9.69231 5.1988C9.69231 3.91181 9.18173 2.67753 8.2729 1.76749C7.36407 0.85745 6.13143 0.346194 4.84616 0.346194ZM4.84616 8.43388C4.20717 8.43388 3.58253 8.24414 3.05124 7.88867C2.51994 7.5332 2.10584 7.02795 1.86131 6.43681C1.61679 5.84568 1.55281 5.19522 1.67746 4.56767C1.80212 3.94013 2.10983 3.36369 2.56166 2.91126C3.01349 2.45883 3.58916 2.15072 4.21586 2.02589C4.84257 1.90107 5.49217 1.96513 6.08252 2.20999C6.67286 2.45484 7.17744 2.86949 7.53244 3.40149C7.88744 3.9335 8.07692 4.55897 8.07692 5.1988C8.07692 6.0568 7.73654 6.87965 7.13065 7.48635C6.52477 8.09304 5.70301 8.43388 4.84616 8.43388Z" fill="white"/>
<path d="M16.1538 10.0514C17.1123 10.0514 18.0493 9.76681 18.8462 9.2336C19.6432 8.70039 20.2643 7.94252 20.6311 7.05582C20.9979 6.16912 21.0939 5.19342 20.9069 4.25211C20.7199 3.31079 20.2583 2.44614 19.5806 1.76749C18.9028 1.08884 18.0393 0.626674 17.0993 0.439435C16.1592 0.252196 15.1848 0.348294 14.2993 0.715577C13.4138 1.08286 12.6569 1.70483 12.1244 2.50284C11.5919 3.30085 11.3077 4.23905 11.3077 5.1988C11.3077 6.4858 11.8183 7.72008 12.7271 8.63012C13.6359 9.54016 14.8686 10.0514 16.1538 10.0514ZM16.1538 1.96373C16.7928 1.96373 17.4175 2.15346 17.9488 2.50894C18.4801 2.86441 18.8942 3.36966 19.1387 3.9608C19.3832 4.55193 19.4472 5.20239 19.3225 5.82994C19.1979 6.45748 18.8902 7.03391 18.4383 7.48635C17.9865 7.93878 17.4108 8.24689 16.7841 8.37172C16.1574 8.49654 15.5078 8.43248 14.9175 8.18762C14.3271 7.94277 13.8226 7.52812 13.4676 6.99611C13.1126 6.46411 12.9231 5.83864 12.9231 5.1988C12.9231 4.34081 13.2635 3.51796 13.8693 2.91126C14.4752 2.30457 15.297 1.96373 16.1538 1.96373Z" fill="white"/>
<path d="M16.1538 11.669C15.1954 11.669 14.2584 11.9536 13.4615 12.4868C12.6645 13.02 12.0434 13.7778 11.6766 14.6645C11.3098 15.5512 11.2138 16.5269 11.4008 17.4683C11.5878 18.4096 12.0493 19.2742 12.7271 19.9529C13.4048 20.6315 14.2683 21.0937 15.2084 21.2809C16.1485 21.4682 17.1229 21.3721 18.0084 21.0048C18.8939 20.6375 19.6508 20.0155 20.1833 19.2175C20.7158 18.4195 21 17.4813 21 16.5216C21 15.2346 20.4894 14.0003 19.5806 13.0902C18.6718 12.1802 17.4391 11.669 16.1538 11.669ZM16.1538 19.7566C15.5149 19.7566 14.8902 19.5669 14.3589 19.2114C13.8276 18.856 13.4135 18.3507 13.169 17.7596C12.9245 17.1684 12.8605 16.518 12.9852 15.8904C13.1098 15.2629 13.4175 14.6865 13.8693 14.234C14.3212 13.7816 14.8968 13.4735 15.5236 13.3486C16.1503 13.2238 16.7999 13.2879 17.3902 13.5327C17.9806 13.7776 18.4851 14.1922 18.8401 14.7243C19.1951 15.2563 19.3846 15.8817 19.3846 16.5216C19.3846 17.3796 19.0442 18.2024 18.4383 18.8091C17.8325 19.4158 17.0107 19.7566 16.1538 19.7566Z" fill="white"/>
<path d="M4.84616 11.669C3.88768 11.669 2.95072 11.9536 2.15378 12.4868C1.35683 13.02 0.735687 13.7778 0.368894 14.6645C0.00209977 15.5512 -0.0938702 16.5269 0.0931196 17.4683C0.28011 18.4096 0.741661 19.2742 1.41941 19.9529C2.09715 20.6315 2.96066 21.0937 3.90072 21.2809C4.84078 21.4682 5.81518 21.3721 6.7007 21.0048C7.58622 20.6375 8.34308 20.0155 8.87558 19.2175C9.40809 18.4195 9.69231 17.4813 9.69231 16.5216C9.69231 15.2346 9.18173 14.0003 8.2729 13.0902C7.36407 12.1802 6.13143 11.669 4.84616 11.669ZM4.84616 19.7566C4.20717 19.7566 3.58253 19.5669 3.05124 19.2114C2.51994 18.856 2.10584 18.3507 1.86131 17.7596C1.61679 17.1684 1.55281 16.518 1.67746 15.8904C1.80212 15.2629 2.10983 14.6865 2.56166 14.234C3.01349 13.7816 3.58916 13.4735 4.21586 13.3486C4.84257 13.2238 5.49217 13.2879 6.08252 13.5327C6.67286 13.7776 7.17744 14.1922 7.53244 14.7243C7.88744 15.2563 8.07692 15.8817 8.07692 16.5216C8.07692 17.3796 7.73654 18.2024 7.13065 18.8091C6.52477 19.4158 5.70301 19.7566 4.84616 19.7566Z" fill="white"/>
</svg>
