<svg width="16" height="16" viewBox="0 0 16 16" fill="none" xmlns="http://www.w3.org/2000/svg">
<g clip-path="url(#clip0)">
<circle cx="8" cy="8" r="9" fill="white" stroke="white" stroke-width="2"/>
<circle cx="8" cy="8" r="8" fill="#6BB700"/>
<path fill-rule="evenodd" clip-rule="evenodd" d="M7.04864 10.4026C7.16822 10.4026 7.28237 10.3795 7.39108 10.3333C7.4998 10.2871 7.59492 10.2232 7.67646 10.1417L11.1743 6.64381C11.2559 6.56227 11.3184 6.46715 11.3619 6.35844C11.4054 6.24972 11.4271 6.13829 11.4271 6.02414C11.4271 5.90455 11.404 5.7904 11.3578 5.68169C11.3116 5.57297 11.2491 5.47921 11.1703 5.40039C11.0914 5.32157 10.9977 5.25906 10.889 5.21286C10.7802 5.16666 10.6661 5.14355 10.5465 5.14355C10.4324 5.14355 10.3196 5.1653 10.2081 5.20878C10.0967 5.25227 10.0002 5.31478 9.91869 5.39632L7.04864 8.26637L6.08652 7.30425C5.91257 7.1303 5.7033 7.04333 5.45869 7.04333C5.33911 7.04333 5.22496 7.06644 5.11624 7.11264C5.00753 7.15884 4.9124 7.22271 4.83087 7.30425C4.74933 7.38578 4.68546 7.47955 4.63926 7.58555C4.59306 7.69154 4.56995 7.80433 4.56995 7.92392C4.56995 8.03807 4.59306 8.15086 4.63926 8.26229C4.68546 8.37372 4.74933 8.47021 4.83087 8.55174L6.42081 10.1417C6.50235 10.2232 6.59883 10.2871 6.71026 10.3333C6.82169 10.3795 6.93448 10.4026 7.04864 10.4026Z" fill="white"/>
</g>
<defs>
<clipPath id="clip0">
<rect width="16" height="16" fill="white"/>
</clipPath>
</defs>
</svg>
