<svg width="25" height="14" viewBox="0 0 25 14" fill="none" xmlns="http://www.w3.org/2000/svg">
<path d="M20.7238 7.2442C21.2813 6.84397 21.7103 6.28761 21.9551 5.64316C22.2246 4.93367 22.2563 4.15581 22.0454 3.42674C21.8345 2.69766 21.3925 2.05685 20.7858 1.6008C20.1791 1.14475 19.4407 0.898151 18.6818 0.898151C17.9228 0.898151 17.1844 1.14475 16.5777 1.6008C15.9711 2.05685 15.529 2.69766 15.3181 3.42674C15.1072 4.15581 15.1389 4.93367 15.4084 5.64316C15.6533 6.28789 16.0826 6.84445 16.6405 7.24472C15.5128 7.65504 14.5315 8.39325 13.8243 9.3666C13.0767 10.3956 12.6736 11.6347 12.6727 12.9066L12.6726 13.0085H12.7745H13.5893H13.6912V12.9067C13.6912 11.5804 14.218 10.3084 15.1559 9.37058C16.0937 8.43276 17.3657 7.90589 18.6919 7.90589C20.0182 7.90589 21.2902 8.43276 22.228 9.37058C23.1659 10.3084 23.6927 11.5804 23.6927 12.9067V13.0085H23.7946H24.6094H24.7114L24.7112 12.9065C24.7089 11.632 24.3028 10.391 23.5512 9.36168C22.8404 8.38816 21.855 7.65137 20.7238 7.2442ZM18.6818 1.91922C19.1735 1.91884 19.6543 2.06431 20.0632 2.33722C20.4722 2.61014 20.791 2.99824 20.9794 3.45242C21.1677 3.90659 21.2171 4.40643 21.1213 4.88867C21.0254 5.37092 20.7887 5.8139 20.441 6.16157C20.0934 6.50924 19.6504 6.74596 19.1681 6.84179C18.6859 6.93761 18.1861 6.88823 17.7319 6.6999C17.2777 6.51156 16.8896 6.19274 16.6167 5.78376C16.3438 5.37479 16.1983 4.89405 16.1987 4.40238C16.1992 3.74396 16.461 3.11266 16.9266 2.64709C17.3921 2.18153 18.0234 1.91974 18.6818 1.91922Z" fill="black" stroke="black" stroke-width="0.203697"/>
<path d="M8.72389 7.2442C9.28143 6.84397 9.71041 6.28761 9.95522 5.64316C10.2247 4.93367 10.2564 4.15581 10.0455 3.42674C9.83466 2.69766 9.39259 2.05685 8.78593 1.6008C8.17926 1.14475 7.44085 0.898151 6.68189 0.898151C5.92292 0.898151 5.18451 1.14475 4.57784 1.6008C3.97118 2.05685 3.52911 2.69766 3.31822 3.42674C3.10733 4.15581 3.13903 4.93367 3.40855 5.64316C3.65346 6.28789 4.08271 6.84445 4.6406 7.24472C3.5129 7.65504 2.53164 8.39325 1.82442 9.3666C1.07677 10.3956 0.673685 11.6347 0.672809 12.9066L0.672739 13.0085H0.774658H1.58945H1.6913V12.9067C1.6913 11.5804 2.21816 10.3084 3.15599 9.37058C4.09382 8.43276 5.36578 7.90589 6.69207 7.90589C8.01836 7.90589 9.29032 8.43276 10.2282 9.37058C11.166 10.3084 11.6928 11.5804 11.6928 12.9067V13.0085H11.7947H12.6095H12.7115L12.7113 12.9065C12.709 11.632 12.3029 10.391 11.5513 9.36168C10.8405 8.38816 9.85513 7.65137 8.72389 7.2442ZM6.68197 1.91922C7.17364 1.91884 7.65438 2.06431 8.06335 2.33722C8.47233 2.61014 8.79115 2.99824 8.97949 3.45242C9.16782 3.90659 9.2172 4.40643 9.12138 4.88867C9.02555 5.37092 8.78883 5.8139 8.44116 6.16157C8.09349 6.50924 7.65051 6.74596 7.16826 6.84179C6.68602 6.93761 6.18618 6.88823 5.73201 6.6999C5.27783 6.51156 4.88973 6.19274 4.61681 5.78376C4.34389 5.37479 4.19843 4.89405 4.19881 4.40238C4.19933 3.74396 4.46111 3.11266 4.92668 2.64709C5.39225 2.18153 6.02355 1.91974 6.68197 1.91922Z" fill="black" stroke="black" stroke-width="0.203697"/>
</svg>
