<svg width="12" height="12" viewBox="0 0 12 12" fill="none" xmlns="http://www.w3.org/2000/svg">
<path fill-rule="evenodd" clip-rule="evenodd" d="M6 12C2.68629 12 0 9.31371 0 6C0 2.68629 2.68629 0 6 0C9.31371 0 12 2.68629 12 6C12 9.31371 9.31371 12 6 12ZM6.7487 6L8.492 4.2567C8.69875 4.04996 8.69875 3.71475 8.492 3.508C8.28525 3.30125 7.95004 3.30125 7.7433 3.508L6 5.2513L4.2567 3.508C4.04996 3.30125 3.71475 3.30125 3.508 3.508C3.30125 3.71475 3.30125 4.04996 3.508 4.2567L5.2513 6L3.508 7.7433C3.30125 7.95004 3.30125 8.28525 3.508 8.492C3.71475 8.69875 4.04996 8.69875 4.2567 8.492L6 6.7487L7.7433 8.492C7.95004 8.69875 8.28525 8.69875 8.492 8.492C8.69875 8.28525 8.69875 7.95004 8.492 7.7433L6.7487 6Z" fill="#F03737"/>
</svg>
