<svg width="19" height="19" viewBox="0 0 19 19" fill="none" xmlns="http://www.w3.org/2000/svg">
<path fill-rule="evenodd" clip-rule="evenodd" d="M13.9748 12.3864C13.897 12.3086 13.5272 12.6897 13.4494 12.6119C13.3521 12.5145 13.4494 11.8609 13.4494 11.8609C14.3819 10.5891 14.8814 9.05153 14.8745 7.47456C14.8567 3.35814 11.5272 0.0238511 7.41083 7.56172e-05C5.4409 -0.00883716 3.54923 0.770468 2.15723 2.16439C0.76522 3.5583 -0.0114881 5.45104 0.000128454 7.42095C0.0179202 11.5377 3.34767 14.8723 7.46443 14.8961C9.04783 14.903 10.591 14.3976 11.8636 13.4555L11.8691 13.4514C11.8691 13.4514 12.4696 13.3579 12.563 13.4514C12.633 13.5215 12.2924 13.875 12.368 13.9506C14.0623 15.6459 17.0662 18.6513 17.0662 18.6513C17.3472 18.9461 17.7659 19.0655 18.1601 18.9631C18.5543 18.8607 18.862 18.5527 18.9641 18.1584C19.0661 17.7642 18.9464 17.3456 18.6514 17.0648C18.6514 17.0648 15.5336 13.9459 13.9748 12.3864ZM7.459 13.406C4.16577 13.387 1.50202 10.7196 1.48756 7.42638C1.47867 5.85066 2.10009 4.33677 3.21348 3.22172C4.32688 2.10667 5.83984 1.483 7.41558 1.48954C10.7088 1.50849 13.3726 4.17588 13.387 7.46913C13.3959 9.04485 12.7745 10.5587 11.6611 11.6738C10.5477 12.7888 9.03474 13.4125 7.459 13.406Z" fill="#8E8E93"/>
</svg>
