<svg width="16" height="16" viewBox="0 0 16 16" fill="none" xmlns="http://www.w3.org/2000/svg">
<circle cx="8" cy="8" r="7" fill="white" stroke="white" stroke-width="2"/>
<circle cx="8" cy="8" r="6" fill="#6BB700"/>
<path fill-rule="evenodd" clip-rule="evenodd" d="M7.28626 9.80268C7.37595 9.80268 7.46156 9.78536 7.54309 9.7507C7.62463 9.71605 7.69597 9.66815 7.75712 9.607L10.3805 6.98359C10.4417 6.92244 10.4886 6.85109 10.5212 6.76956C10.5538 6.68802 10.5701 6.60445 10.5701 6.51884C10.5701 6.42915 10.5528 6.34354 10.5181 6.262C10.4835 6.18046 10.4366 6.11014 10.3775 6.05103C10.3184 5.99191 10.248 5.94503 10.1665 5.91038C10.085 5.87572 9.99935 5.8584 9.90966 5.8584C9.82405 5.8584 9.73946 5.87471 9.65588 5.90732C9.57231 5.93993 9.49995 5.98682 9.4388 6.04797L7.28626 8.20051L6.56467 7.47892C6.43421 7.34846 6.27726 7.28323 6.0938 7.28323C6.00411 7.28323 5.9185 7.30056 5.83696 7.33521C5.75543 7.36986 5.68408 7.41777 5.62293 7.47892C5.56178 7.54007 5.51388 7.61039 5.47923 7.68989C5.44457 7.76939 5.42725 7.85398 5.42725 7.94367C5.42725 8.02928 5.44457 8.11388 5.47923 8.19745C5.51388 8.28102 5.56178 8.35339 5.62293 8.41454L6.81539 9.607C6.87654 9.66815 6.9489 9.71605 7.03248 9.7507C7.11605 9.78536 7.20064 9.80268 7.28626 9.80268Z" fill="white"/>
</svg>
