<svg width="13" height="14" viewBox="0 0 13 14" fill="none" xmlns="http://www.w3.org/2000/svg">
<path d="M8.72463 7.2442C9.28217 6.84397 9.71115 6.28761 9.95596 5.64316C10.2255 4.93367 10.2572 4.15581 10.0463 3.42674C9.83539 2.69766 9.39332 2.05685 8.78666 1.6008C8.18 1.14475 7.44158 0.898151 6.68262 0.898151C5.92366 0.898151 5.18524 1.14475 4.57857 1.6008C3.97191 2.05685 3.52985 2.69766 3.31895 3.42674C3.10806 4.15581 3.13976 4.93367 3.40928 5.64316C3.65419 6.28789 4.08344 6.84445 4.64133 7.24472C3.51363 7.65504 2.53238 8.39325 1.82515 9.3666C1.07751 10.3956 0.674417 11.6347 0.673542 12.9066L0.673472 13.0085H0.775391H1.59018H1.69203V12.9067C1.69203 11.5804 2.2189 10.3084 3.15672 9.37058C4.09455 8.43276 5.36651 7.90589 6.6928 7.90589C8.01909 7.90589 9.29106 8.43276 10.2289 9.37058C11.1667 10.3084 11.6936 11.5804 11.6936 12.9067V13.0085H11.7954H12.6102H12.7122L12.7121 12.9065C12.7098 11.632 12.3037 10.391 11.5521 9.36168C10.8412 8.38816 9.85587 7.65137 8.72463 7.2442ZM6.6827 1.91922C7.17437 1.91884 7.65511 2.06431 8.06409 2.33722C8.47306 2.61014 8.79189 2.99824 8.98022 3.45242C9.16856 3.90659 9.21793 4.40643 9.12211 4.88867C9.02628 5.37092 8.78956 5.8139 8.44189 6.16157C8.09423 6.50924 7.65124 6.74596 7.16899 6.84179C6.68675 6.93761 6.18691 6.88823 5.73274 6.6999C5.27857 6.51156 4.89046 6.19274 4.61755 5.78376C4.34463 5.37479 4.19916 4.89405 4.19955 4.40238C4.20006 3.74396 4.46185 3.11266 4.92742 2.64709C5.39298 2.18153 6.02428 1.91974 6.6827 1.91922Z" fill="black" stroke="black" stroke-width="0.203697"/>
</svg>
