<svg width="22" height="20" viewBox="0 0 22 20" fill="none" xmlns="http://www.w3.org/2000/svg">
<path d="M19.9604 0.236805C19.7942 0.258718 19.6405 0.3369 19.525 0.458332L15.3312 4.65208H15.3236L14.1625 5.82083H14.1549L6.31735 13.666H6.30971L5.20971 14.7736H5.20207L1.4361 18.5472C1.36107 18.6137 1.30047 18.6949 1.25805 18.7857C1.21562 18.8766 1.19227 18.9751 1.18944 19.0754C1.1866 19.1756 1.20435 19.2753 1.24157 19.3684C1.2788 19.4615 1.33472 19.546 1.40587 19.6166C1.47702 19.6872 1.5619 19.7425 1.65527 19.7791C1.74863 19.8156 1.84849 19.8326 1.94869 19.829C2.04888 19.8255 2.14728 19.8014 2.2378 19.7583C2.32832 19.7152 2.40905 19.654 2.47499 19.5785L6.6611 15.3924C8.02205 15.873 9.4821 16.1333 11 16.1333C15.4556 16.1333 19.4104 13.8852 21.8625 10.4424C22.0367 10.1965 22.0367 9.84035 21.8625 9.59444C20.5507 7.75275 18.8085 6.25593 16.7903 5.26319L20.5639 1.48958C20.6739 1.38231 20.7474 1.24318 20.7741 1.09185C20.8008 0.940527 20.7793 0.78464 20.7126 0.646202C20.6459 0.507764 20.5374 0.393769 20.4025 0.320311C20.2675 0.246853 20.1129 0.217643 19.9604 0.236805ZM11 3.91111C6.54434 3.91111 2.58963 6.15167 0.137491 9.59444C-0.0367158 9.84035 -0.0367158 10.1965 0.137491 10.4424C1.15189 11.8666 2.42278 13.0842 3.88055 14.025L4.94999 12.9556C3.69606 12.1887 2.58713 11.1936 1.67291 10.0222C3.8811 7.19014 7.22605 5.37778 11 5.37778C11.4877 5.37778 11.9643 5.41062 12.4361 5.46944L13.7118 4.19375C12.8355 4.00838 11.9289 3.91111 11 3.91111ZM11 6.35556C8.98363 6.35556 7.33332 8.00586 7.33332 10.0222C7.33332 10.1965 7.3477 10.3661 7.37152 10.534L11.5118 6.39375C11.3438 6.36993 11.1742 6.35556 11 6.35556ZM15.6826 6.37083C17.5036 7.17672 19.0929 8.43936 20.3271 10.0222C18.1188 12.8516 14.7718 14.6667 11 14.6667C9.90159 14.6667 8.84516 14.5054 7.83749 14.216L8.97569 13.0778C9.55788 13.4646 10.2534 13.6889 11 13.6889C13.0163 13.6889 14.6667 12.0386 14.6667 10.0222C14.6667 9.27618 14.4418 8.57984 14.0555 7.99792L15.6826 6.37083ZM12.9861 9.06736C13.1218 9.35507 13.2 9.68056 13.2 10.0222C13.2 11.2459 12.2237 12.2222 11 12.2222C10.6579 12.2222 10.3331 12.1443 10.0451 12.0083L12.9861 9.06736Z" fill="#999999"/>
</svg>
